<svg width="35" height="27" fill="none" xmlns="http://www.w3.org/2000/svg"><path d="m23.555 1.905 2.35 4.698c.316.65 1.166 1.266 1.882 1.4l4.248.7c2.716.45 3.349 2.415 1.4 4.38L30.118 16.4c-.55.55-.866 1.633-.683 2.416l.95 4.098c.75 3.232-.983 4.498-3.832 2.799l-3.981-2.366c-.717-.433-1.916-.433-2.633 0l-3.981 2.366c-2.849 1.682-4.582.433-3.832-2.8l.95-4.097c.15-.8-.167-1.883-.717-2.433l-3.315-3.315c-1.949-1.949-1.316-3.915 1.4-4.381l4.248-.7c.716-.117 1.566-.75 1.882-1.4l2.35-4.697c1.282-2.533 3.348-2.533 4.63.016zM11.245 2.803H1.25C.567 2.803 0 2.236 0 1.553S.567.303 1.25.303h9.995c.683 0 1.25.567 1.25 1.25s-.567 1.25-1.25 1.25zM6.247 26.126H1.25c-.683 0-1.25-.567-1.25-1.25s.567-1.25 1.25-1.25h4.997c.683 0 1.25.567 1.25 1.25s-.567 1.25-1.25 1.25zM2.916 14.464H1.25c-.683 0-1.25-.566-1.25-1.25 0-.682.567-1.249 1.25-1.249h1.666c.683 0 1.249.567 1.249 1.25s-.566 1.25-1.25 1.25z" fill="#fff"/></svg>